<?xml version="1.0" ?><svg data-name="Layer 2" id="Layer_2" viewBox="0 0 24 24" xmlns="http://www.w3.org/2000/svg"><path class="cls-1" d="M20.15,1.35,18,3.5H14L11.85,1.35a.5.5,0,0,0-.85.36V7A5,5,0,0,0,21,7V1.71A.5.5,0,0,0,20.15,1.35ZM14,8a1,1,0,1,1,1-1A1,1,0,0,1,14,8Zm4,0a1,1,0,1,1,1-1A1,1,0,0,1,18,8Z"/><path class="cls-1" d="M9,23H5a3,3,0,0,1,0-6H7a1,1,0,0,1,0,2H5a1,1,0,0,0,0,2H9a1,1,0,0,1,0,2Z"/><path class="cls-1" d="M7,19a1,1,0,0,1-1-1V15A6.37,6.37,0,0,1,9.09,9.55l2.4-1.44a1,1,0,0,1,1.37.34,1,1,0,0,1-.35,1.37l-2.39,1.44A4.39,4.39,0,0,0,8,15v3A1,1,0,0,1,7,19Z"/><path class="cls-1" d="M14.22,23a3,3,0,0,1-3-2.55l-.95-6.3a1,1,0,0,1,2-.3l1,6.3a1,1,0,0,0,1,.85.78.78,0,0,0,.78-.77V17a1,1,0,0,1,2,0v3.23A2.78,2.78,0,0,1,14.22,23Z"/><path class="cls-1" d="M17.78,23A2.78,2.78,0,0,1,15,20.23V17a1,1,0,0,1,2,0v3.23a.78.78,0,0,0,.78.77,1,1,0,0,0,1-.85l.95-6.3a1,1,0,1,1,2,.3l-1,6.3A3,3,0,0,1,17.78,23Z"/></svg>