<?xml version="1.0" standalone="no"?>
<!DOCTYPE svg PUBLIC "-//W3C//DTD SVG 20010904//EN"
 "http://www.w3.org/TR/2001/REC-SVG-20010904/DTD/svg10.dtd">
<svg version="1.0" xmlns="http://www.w3.org/2000/svg"
 width="256.000000pt" height="256.000000pt" viewBox="0 0 256.000000 256.000000"
 preserveAspectRatio="xMidYMid meet">
<metadata>
Created by potrace 1.14, written by Peter Selinger 2001-2017
</metadata>
<g transform="translate(0.000000,256.000000) scale(0.100000,-0.100000)"
fill="#000000" stroke="none">
<path d="M1355 2540 c-41 -9 -86 -34 -111 -62 -12 -12 -76 -119 -144 -235 -67
-117 -124 -213 -127 -213 -2 0 -23 10 -46 22 -32 17 -60 22 -117 23 -87 0
-130 -18 -219 -93 -31 -26 -71 -60 -91 -77 -124 -105 -152 -144 -356 -514 -17
-31 -44 -81 -61 -111 -84 -150 -93 -184 -73 -259 14 -51 78 -117 128 -130 20
-6 56 -8 79 -6 47 5 118 37 126 57 4 9 6 9 6 1 1 -6 -7 -18 -17 -25 -26 -19
-58 -69 -66 -103 -4 -16 -29 -68 -56 -115 -39 -70 -60 -128 -116 -320 -86
-302 -83 -290 -67 -323 16 -32 45 -46 80 -39 14 3 93 77 196 183 94 99 175
179 178 179 4 0 9 -13 12 -29 8 -39 51 -88 101 -113 101 -51 234 2 271 108
l13 38 16 -39 c70 -167 301 -169 371 -3 8 21 15 66 15 101 l0 64 53 -15 c31
-8 97 -15 162 -15 120 0 196 15 293 60 l57 26 320 2 c386 3 350 0 375 27 20
21 20 33 20 499 0 454 -1 478 -19 500 l-19 24 -354 5 c-256 4 -358 8 -373 17
-11 7 -118 60 -238 118 l-219 104 20 28 c10 16 65 109 122 208 92 159 104 187
108 236 5 63 -13 111 -56 155 -43 42 -120 66 -177 54z"/>
</g>
</svg>
